# xmcd
#
# Track frame offsets:
#	150
#	23470
#	30332
#	57282
#	72545
#	88417
#	110322
#	127847
#	141562
#	159232
#	175185
#	191755
#	216640
#	228300
#	242670
#	271857
#	282745
#	292655
#
# Disc length: 4212 seconds
#
# Revision: 2
# Processed by: cddbd v1.5.1PL2 Copyright (c) Steve Scherf et al.
# Submitted via: EasyCDDAExtractor 9.0.0.1
#
DISCID=07107212
DTITLE=Lightnin' Hopkins - The Complete Prestige/Bluesville Recordings - Disc 
DTITLE=6
DYEAR=1991
DGENRE=Blues
TTITLE0=I Was Standing On 75 Highway
TTITLE1=Get It Straight
TTITLE2=I'm Going To Build Me A Heaven Of My Own
TTITLE3=My Babe
TTITLE4=Too Many Drivers
TTITLE5=I'm A Crawling Black Snake
TTITLE6=Rocky Mountain Blues
TTITLE7=I Mean Goodbye
TTITLE8=The Howling Wolf
TTITLE9=Black Ghost Blues
TTITLE10=Darling, Do You Remember Me?
TTITLE11=Lonesome Graveyard
TTITLE12=I Don't Want To Do Nothing To You
TTITLE13=You Is One Black Rat
TTITLE14=Got Nowhere To Lay My Head
TTITLE15=Just Boogyin'
TTITLE16=Take Me Back
TTITLE17=I Was Down On Dowling Street
EXTD=
EXTT0=
EXTT1=
EXTT2=
EXTT3=
EXTT4=
EXTT5=
EXTT6=
EXTT7=
EXTT8=
EXTT9=
EXTT10=
EXTT11=
EXTT12=
EXTT13=
EXTT14=
EXTT15=
EXTT16=
EXTT17=
PLAYORDER=
